<?xml version="1.0" encoding="UTF-8"?>
<svg id="Layer_2" xmlns="http://www.w3.org/2000/svg" xmlns:xlink="http://www.w3.org/1999/xlink" viewBox="0 0 1088.41 918">
  <defs>
    <style>
      .cls-1 {
        fill: url(#linear-gradient-4);
      }

      .cls-2 {
        fill: url(#linear-gradient-3);
        filter: url(#drop-shadow-3);
      }

      .cls-3 {
        fill: url(#linear-gradient);
        filter: url(#drop-shadow-1);
      }

      .cls-4 {
        fill: url(#linear-gradient-2);
        filter: url(#drop-shadow-2);
      }
    </style>
    <linearGradient id="linear-gradient" x1="574.16" y1="368.65" x2="297.61" y2="847.64" gradientUnits="userSpaceOnUse">
      <stop offset="0" stop-color="#e9f7fe"/>
      <stop offset=".08" stop-color="#dff4fa"/>
      <stop offset=".22" stop-color="#c4edf2"/>
      <stop offset=".4" stop-color="#99e1e4"/>
      <stop offset=".61" stop-color="#5dd1d0"/>
      <stop offset=".85" stop-color="#11bcb7"/>
      <stop offset=".89" stop-color="#03b9b3"/>
    </linearGradient>
    <filter id="drop-shadow-1" x="0" y="410.59" width="873" height="426" filterUnits="userSpaceOnUse">
      <feOffset dx="0" dy="14.17"/>
      <feGaussianBlur result="blur" stdDeviation="19.84"/>
      <feFlood flood-color="#000" flood-opacity=".5"/>
      <feComposite in2="blur" operator="in"/>
      <feComposite in="SourceGraphic"/>
    </filter>
    <linearGradient id="linear-gradient-2" x1="612.51" y1="632.79" x2="612.51" y2="227.23" xlink:href="#linear-gradient"/>
    <filter id="drop-shadow-2" x="177.41" y="0" width="911" height="918" filterUnits="userSpaceOnUse">
      <feOffset dx="19.84" dy="28.35"/>
      <feGaussianBlur result="blur-2" stdDeviation="85.04"/>
      <feFlood flood-color="#000" flood-opacity=".5"/>
      <feComposite in2="blur-2" operator="in"/>
      <feComposite in="SourceGraphic"/>
    </filter>
    <linearGradient id="linear-gradient-3" x1="414.72" y1="153.6" x2="926.22" y2="153.6" gradientTransform="translate(-89.15 19.86) rotate(.54) scale(.96 1) skewX(1.11)" xlink:href="#linear-gradient"/>
    <filter id="drop-shadow-3" x="250" y="20.59" width="611" height="346" filterUnits="userSpaceOnUse">
      <feOffset dx="0" dy="14.17"/>
      <feGaussianBlur result="blur-3" stdDeviation="19.84"/>
      <feFlood flood-color="#000" flood-opacity=".2"/>
      <feComposite in2="blur-3" operator="in"/>
      <feComposite in="SourceGraphic"/>
    </filter>
    <linearGradient id="linear-gradient-4" x1="54.87" y1="471.25" x2="409.45" y2="471.25" xlink:href="#linear-gradient"/>
  </defs>
  <g id="Layer_1-2" data-name="Layer_1">
    <g>
      <path class="cls-3" d="M795.3,604.29c-211.29,52.65-422.58,105.31-633.88,157.96-8.62,2.15-17.6-1.39-22.99-9.06-24.47-34.8-48.95-69.59-73.42-104.39-10.14-14.42-3.12-35.5,13.13-39.38,212.6-50.78,425.2-101.55,637.79-152.33,8.56-2.05,17.44,1.5,22.79,9.1,23.17,32.92,46.33,65.84,69.5,98.76,10.1,14.35,3.21,35.32-12.92,39.34Z"/>
      <path class="cls-4" d="M438.8,252.79c34.09-8.22,68.17-16.43,102.26-24.65,13-3.13,26.58,1.94,34.52,12.89,76.6,105.58,153.2,211.15,229.79,316.73,14.43,19.89,3.94,48.36-19.76,53.61-31.05,6.88-62.1,13.76-93.15,20.64-12.54,2.78-25.54-2.02-33.43-12.35-79.63-104.24-159.27-208.48-238.9-312.71-14.97-19.6-5.03-48.44,18.67-54.15Z"/>
      <path class="cls-2" d="M331.04,142.77c124.96-25.26,249.93-50.51,374.89-75.77,10.06-2.03,20.45,2.18,26.67,10.82,20.89,29.01,41.78,58.02,62.67,87.02,11.62,16.13,3.66,39.06-15.03,43.3-122.42,27.75-244.84,55.51-367.25,83.26-10.07,2.28-20.61-1.75-27-10.34-23.44-31.51-46.87-63.01-70.31-94.52-12.13-16.31-3.86-39.89,15.36-43.78Z"/>
      <path class="cls-1" d="M57.92,624.59c72.88-143.46,145.76-286.93,218.64-430.39,8.27-16.28,29.5-19.84,42.73-7.15l81.39,78.04c9,8.63,11.36,22.28,5.77,33.37l-226.62,449.74c-9.1,18.05-33.52,20.11-45.77,3.85-24.47-32.46-48.94-64.93-73.41-97.39-6.55-8.69-7.61-20.43-2.72-30.07Z"/>
    </g>
  </g>
</svg>